<?xml version="1.0" encoding="UTF-8"?>
<!DOCTYPE svg PUBLIC "-//W3C//DTD SVG 1.1//EN" "http://www.w3.org/Graphics/SVG/1.1/DTD/svg11.dtd">
<svg xmlns="http://www.w3.org/2000/svg" version="1.1" width="512px" height="512px" style="shape-rendering:geometricPrecision; text-rendering:geometricPrecision; image-rendering:optimizeQuality; fill-rule:evenodd; clip-rule:evenodd" xmlns:xlink="http://www.w3.org/1999/xlink">
<g><path style="opacity:0.99" fill="#8a4852" d="M 279.5,439.5 C 286.246,422.597 291.579,405.263 295.5,387.5C 297.886,383.603 300.886,380.103 304.5,377C 311.58,372.043 318.747,367.21 326,362.5C 326.684,361.216 326.517,360.049 325.5,359C 320.511,358.501 315.511,358.334 310.5,358.5C 309.571,357.685 308.571,356.852 307.5,356C 315.652,355.259 323.152,352.759 330,348.5C 330.667,347.833 330.667,347.167 330,346.5C 327.411,344.789 324.911,342.955 322.5,341C 341.027,343.605 356.527,338.105 369,324.5C 369.49,323.207 369.657,321.873 369.5,320.5C 362.266,322.197 354.933,322.697 347.5,322C 355.182,315.979 361.015,308.479 365,299.5C 367.767,290.333 369.767,281 371,271.5C 372.729,261.209 377.229,252.375 384.5,245C 386.717,243.725 389.051,242.725 391.5,242C 392.451,241.282 392.617,240.449 392,239.5C 381.413,232.7 370.913,232.867 360.5,240C 357.559,242.287 354.892,244.787 352.5,247.5C 346.652,242.132 344.485,235.465 346,227.5C 350.333,217.833 354.667,208.167 359,198.5C 361.405,187.048 358.238,177.548 349.5,170C 348.5,169.333 347.5,169.333 346.5,170C 341.435,186.564 330.768,197.731 314.5,203.5C 314.781,182.036 308.615,162.703 296,145.5C 285.953,136.964 276.286,127.964 267,118.5C 263.296,112.651 259.463,106.984 255.5,101.5C 247.552,115.623 236.886,127.456 223.5,137C 204.845,155.109 195.845,177.276 196.5,203.5C 180.66,197.826 169.993,186.993 164.5,171C 163.5,170.333 162.5,170.333 161.5,171C 157.94,175.563 154.773,180.396 152,185.5C 151.165,191.983 151.832,198.316 154,204.5C 158.469,211.771 162.135,219.438 165,227.5C 166.515,235.465 164.348,242.132 158.5,247.5C 150.689,237.266 140.355,233.1 127.5,235C 116.264,238.032 115.93,241.366 126.5,245C 132.25,250.329 136.084,256.829 138,264.5C 140.389,276.206 143.055,287.873 146,299.5C 149.985,308.479 155.818,315.979 163.5,322C 156.081,322.699 148.748,322.199 141.5,320.5C 141.343,321.873 141.51,323.207 142,324.5C 154.721,339.074 170.555,344.24 189.5,340C 187.191,342.487 184.524,344.487 181.5,346C 180.549,346.718 180.383,347.551 181,348.5C 187.879,352.764 195.379,355.264 203.5,356C 202.429,356.852 201.429,357.685 200.5,358.5C 194.158,358.334 187.825,358.5 181.5,359C 180.483,360.049 180.316,361.216 181,362.5C 188.253,367.21 195.42,372.043 202.5,377C 206.114,380.103 209.114,383.603 211.5,387.5C 214.951,403.52 219.617,419.186 225.5,434.5C 220.764,430.255 216.931,425.255 214,419.5C 209.237,408.874 205.07,398.04 201.5,387C 191.405,386.658 181.572,388.158 172,391.5C 167.784,390.975 166.784,388.975 169,385.5C 171.833,380 176,375.833 181.5,373C 175.569,371.349 169.569,369.682 163.5,368C 159.637,366.819 156.137,364.986 153,362.5C 152.333,361.167 152.333,359.833 153,358.5C 156.412,355.877 159.912,353.377 163.5,351C 142.899,354.682 124.232,350.349 107.5,338C 104.296,335.131 101.463,331.965 99,328.5C 97.7072,325.138 98.7072,323.138 102,322.5C 110.402,324.53 118.902,325.363 127.5,325C 113.996,313.841 105.162,299.674 101,282.5C 99.1119,264.381 94.4453,247.048 87,230.5C 82.6305,223.474 76.4638,218.64 68.5,216C 67.2404,214.186 67.2404,212.353 68.5,210.5C 81.6832,202.68 95.0165,202.513 108.5,210C 113.923,213.419 118.756,217.585 123,222.5C 132.24,212.037 133.907,200.371 128,187.5C 124.735,180.579 121.068,173.913 117,167.5C 107.799,147.412 111.632,130.412 128.5,116.5C 129.5,117 130.5,117.5 131.5,118C 138.884,138.971 152.884,153.471 173.5,161.5C 174.374,137.332 180.541,114.665 192,93.5C 194.333,90.1667 196.667,86.8333 199,83.5C 210.7,72.1315 222.7,61.1315 235,50.5C 241.93,42.3102 247.596,33.3102 252,23.5C 254.333,20.8333 256.667,20.8333 259,23.5C 263.404,33.3102 269.07,42.3102 276,50.5C 288.3,61.1315 300.3,72.1315 312,83.5C 322.259,97.2496 329.259,112.583 333,129.5C 334.829,140.121 336.329,150.787 337.5,161.5C 352.885,155.609 364.718,145.609 373,131.5C 375.644,126.379 378.144,121.212 380.5,116C 382.635,115.365 384.635,115.699 386.5,117C 396.721,127.066 400.555,139.232 398,153.5C 397.074,158.279 395.741,162.946 394,167.5C 387.434,176.966 382.767,187.299 380,198.5C 378.679,207.871 381.346,215.871 388,222.5C 395.331,213.753 404.497,207.92 415.5,205C 424.299,203.555 432.632,204.889 440.5,209C 443.338,210.755 444.005,213.088 442.5,216C 434.536,218.64 428.37,223.474 424,230.5C 416.555,247.048 411.888,264.381 410,282.5C 405.838,299.674 397.004,313.841 383.5,325C 392.098,325.363 400.598,324.53 409,322.5C 412.293,323.138 413.293,325.138 412,328.5C 402.574,340.969 390.074,348.469 374.5,351C 365.447,351.579 356.447,351.579 347.5,351C 351.088,353.377 354.588,355.877 358,358.5C 358.667,359.833 358.667,361.167 358,362.5C 354.863,364.986 351.363,366.819 347.5,368C 341.431,369.682 335.431,371.349 329.5,373C 335,375.833 339.167,380 342,385.5C 344.216,388.975 343.216,390.975 339,391.5C 329.428,388.158 319.595,386.658 309.5,387C 305.296,402.572 298.796,417.072 290,430.5C 286.902,434.107 283.402,437.107 279.5,439.5 Z"/></g>
<g><path style="opacity:1" fill="#f4edee" d="M 323.5,146.5 C 323.784,148.415 323.451,150.081 322.5,151.5C 319.318,132.779 312.152,115.779 301,100.5C 297.133,96.2984 292.967,92.4651 288.5,89C 291.098,89.1256 293.431,90.1256 295.5,92C 312.094,106.352 321.427,124.519 323.5,146.5 Z"/></g>
<g><path style="opacity:1" fill="#a96156" d="M 310.5,358.5 C 300.847,359.412 291.18,359.579 281.5,359C 280.263,358.768 279.263,358.268 278.5,357.5C 282.436,355.234 285.769,352.234 288.5,348.5C 294.471,344.51 300.471,340.51 306.5,336.5C 315.532,333.468 321.532,327.468 324.5,318.5C 324.334,322.846 324.501,327.179 325,331.5C 328.92,324.07 332.253,316.403 335,308.5C 347.305,292.295 352.972,273.962 352,253.5C 349.275,259.786 345.442,265.286 340.5,270C 331.057,276.038 321.39,281.704 311.5,287C 307.802,290.245 304.968,294.078 303,298.5C 302.667,295.167 302.333,291.833 302,288.5C 297.999,291.669 294.166,295.003 290.5,298.5C 288.366,284.134 291.533,271.134 300,259.5C 306.569,252.261 313.735,245.761 321.5,240C 302.65,243.682 287.816,253.515 277,269.5C 272.86,251.007 275.86,233.673 286,217.5C 289.248,212.594 292.082,207.927 294.5,203.5C 273.391,214.944 259.725,232.278 253.5,255.5C 247.601,231.438 233.601,214.271 211.5,204C 223.874,218.583 230.874,235.416 232.5,254.5C 232.505,259.643 231.671,264.643 230,269.5C 219.195,253.519 204.362,243.686 185.5,240C 196.043,247.542 204.876,256.709 212,267.5C 216.017,276.051 217.517,285.051 216.5,294.5C 214.163,292.334 211.663,290.334 209,288.5C 208.667,291.833 208.333,295.167 208,298.5C 206.032,294.078 203.198,290.245 199.5,287C 189.373,282.104 179.706,276.437 170.5,270C 165.546,265.252 161.713,259.752 159,253.5C 158.058,274.742 164.058,293.742 177,310.5C 179.218,317.817 182.218,324.817 186,331.5C 186.499,327.179 186.666,322.846 186.5,318.5C 189.477,327.477 195.477,333.477 204.5,336.5C 210.529,340.51 216.529,344.51 222.5,348.5C 224.5,351.167 226.833,353.5 229.5,355.5C 228.878,357.335 227.544,358.502 225.5,359C 216.99,359.823 208.656,359.657 200.5,358.5C 201.429,357.685 202.429,356.852 203.5,356C 195.379,355.264 187.879,352.764 181,348.5C 180.383,347.551 180.549,346.718 181.5,346C 184.524,344.487 187.191,342.487 189.5,340C 170.555,344.24 154.721,339.074 142,324.5C 141.51,323.207 141.343,321.873 141.5,320.5C 148.748,322.199 156.081,322.699 163.5,322C 155.818,315.979 149.985,308.479 146,299.5C 143.055,287.873 140.389,276.206 138,264.5C 136.084,256.829 132.25,250.329 126.5,245C 115.93,241.366 116.264,238.032 127.5,235C 140.355,233.1 150.689,237.266 158.5,247.5C 164.348,242.132 166.515,235.465 165,227.5C 162.135,219.438 158.469,211.771 154,204.5C 151.832,198.316 151.165,191.983 152,185.5C 154.773,180.396 157.94,175.563 161.5,171C 162.5,170.333 163.5,170.333 164.5,171C 169.993,186.993 180.66,197.826 196.5,203.5C 195.845,177.276 204.845,155.109 223.5,137C 236.886,127.456 247.552,115.623 255.5,101.5C 259.463,106.984 263.296,112.651 267,118.5C 276.286,127.964 285.953,136.964 296,145.5C 308.615,162.703 314.781,182.036 314.5,203.5C 330.768,197.731 341.435,186.564 346.5,170C 347.5,169.333 348.5,169.333 349.5,170C 358.238,177.548 361.405,187.048 359,198.5C 354.667,208.167 350.333,217.833 346,227.5C 344.485,235.465 346.652,242.132 352.5,247.5C 354.892,244.787 357.559,242.287 360.5,240C 370.913,232.867 381.413,232.7 392,239.5C 392.617,240.449 392.451,241.282 391.5,242C 389.051,242.725 386.717,243.725 384.5,245C 377.229,252.375 372.729,261.209 371,271.5C 369.767,281 367.767,290.333 365,299.5C 361.015,308.479 355.182,315.979 347.5,322C 354.933,322.697 362.266,322.197 369.5,320.5C 369.657,321.873 369.49,323.207 369,324.5C 356.527,338.105 341.027,343.605 322.5,341C 324.911,342.955 327.411,344.789 330,346.5C 330.667,347.167 330.667,347.833 330,348.5C 323.152,352.759 315.652,355.259 307.5,356C 308.571,356.852 309.571,357.685 310.5,358.5 Z"/></g>
<g><path style="opacity:1" fill="#f6eeec" d="M 233.5,145.5 C 234.239,145.369 234.906,145.536 235.5,146C 225.09,157.987 218.257,171.821 215,187.5C 213.616,176.975 215.95,167.308 222,158.5C 225.67,153.998 229.503,149.665 233.5,145.5 Z"/></g>
<g><path style="opacity:1" fill="#bf9ba0" d="M 323.5,146.5 C 324.641,149.64 324.808,152.973 324,156.5C 323.392,154.846 322.892,153.179 322.5,151.5C 323.451,150.081 323.784,148.415 323.5,146.5 Z"/></g>
<g><path style="opacity:1" fill="#be7c59" d="M 290.5,298.5 C 283.749,306.326 278.249,314.993 274,324.5C 271.331,332.361 270.831,340.361 272.5,348.5C 267.866,343.695 263.366,338.695 259,333.5C 257.587,331.586 255.753,330.253 253.5,329.5C 248.865,333.799 244.199,338.132 239.5,342.5C 239.587,329.011 235.421,317.011 227,306.5C 223.664,302.332 220.164,298.332 216.5,294.5C 217.517,285.051 216.017,276.051 212,267.5C 204.876,256.709 196.043,247.542 185.5,240C 204.362,243.686 219.195,253.519 230,269.5C 231.671,264.643 232.505,259.643 232.5,254.5C 230.874,235.416 223.874,218.583 211.5,204C 233.601,214.271 247.601,231.438 253.5,255.5C 259.725,232.278 273.391,214.944 294.5,203.5C 292.082,207.927 289.248,212.594 286,217.5C 275.86,233.673 272.86,251.007 277,269.5C 287.816,253.515 302.65,243.682 321.5,240C 313.735,245.761 306.569,252.261 300,259.5C 291.533,271.134 288.366,284.134 290.5,298.5 Z"/></g>
<g><path style="opacity:1" fill="#8b4952" d="M 216.5,294.5 C 220.164,298.332 223.664,302.332 227,306.5C 235.421,317.011 239.587,329.011 239.5,342.5C 236.891,347.383 233.557,351.716 229.5,355.5C 226.833,353.5 224.5,351.167 222.5,348.5C 222.5,346.5 222.5,344.5 222.5,342.5C 220.794,328.916 214.794,317.749 204.5,309C 195.258,305.909 187.925,300.409 182.5,292.5C 182.44,291.957 182.107,291.624 181.5,291.5C 180.2,294.309 180.2,296.976 181.5,299.5C 182.386,306.045 184.053,312.378 186.5,318.5C 186.666,322.846 186.499,327.179 186,331.5C 182.218,324.817 179.218,317.817 177,310.5C 164.058,293.742 158.058,274.742 159,253.5C 161.713,259.752 165.546,265.252 170.5,270C 179.706,276.437 189.373,282.104 199.5,287C 203.198,290.245 206.032,294.078 208,298.5C 208.333,295.167 208.667,291.833 209,288.5C 211.663,290.334 214.163,292.334 216.5,294.5 Z"/></g>
<g><path style="opacity:1" fill="#8a4852" d="M 324.5,318.5 C 326.947,312.378 328.614,306.045 329.5,299.5C 330.8,296.976 330.8,294.309 329.5,291.5C 328.893,291.624 328.56,291.957 328.5,292.5C 323.075,300.409 315.742,305.909 306.5,309C 296.206,317.749 290.206,328.916 288.5,342.5C 288.5,344.5 288.5,346.5 288.5,348.5C 285.769,352.234 282.436,355.234 278.5,357.5C 276.265,354.709 274.265,351.709 272.5,348.5C 270.831,340.361 271.331,332.361 274,324.5C 278.249,314.993 283.749,306.326 290.5,298.5C 294.166,295.003 297.999,291.669 302,288.5C 302.333,291.833 302.667,295.167 303,298.5C 304.968,294.078 307.802,290.245 311.5,287C 321.39,281.704 331.057,276.038 340.5,270C 345.442,265.286 349.275,259.786 352,253.5C 352.972,273.962 347.305,292.295 335,308.5C 332.253,316.403 328.92,324.07 325,331.5C 324.501,327.179 324.334,322.846 324.5,318.5 Z"/></g>
<g><path style="opacity:1" fill="#f4eeef" d="M 113.5,262.5 C 116.465,276.227 120.965,289.561 127,302.5C 129.442,305.084 130.942,307.75 131.5,310.5C 123.027,304.182 117.527,295.849 115,285.5C 113.738,277.887 113.238,270.22 113.5,262.5 Z"/></g>
<g><path style="opacity:1" fill="#fccb6b" d="M 182.5,292.5 C 187.925,300.409 195.258,305.909 204.5,309C 214.794,317.749 220.794,328.916 222.5,342.5C 219.117,331.452 211.784,324.452 200.5,321.5C 200.615,326.842 201.948,331.842 204.5,336.5C 195.477,333.477 189.477,327.477 186.5,318.5C 184.053,312.378 182.386,306.045 181.5,299.5C 181.198,296.941 181.532,294.607 182.5,292.5 Z"/></g>
<g><path style="opacity:1" fill="#fccb6a" d="M 328.5,292.5 C 329.468,294.607 329.802,296.941 329.5,299.5C 328.614,306.045 326.947,312.378 324.5,318.5C 321.532,327.468 315.532,333.468 306.5,336.5C 309.052,331.842 310.385,326.842 310.5,321.5C 299.216,324.452 291.883,331.452 288.5,342.5C 290.206,328.916 296.206,317.749 306.5,309C 315.742,305.909 323.075,300.409 328.5,292.5 Z"/></g>
<g><path style="opacity:1" fill="#c1875e" d="M 328.5,292.5 C 328.56,291.957 328.893,291.624 329.5,291.5C 330.8,294.309 330.8,296.976 329.5,299.5C 329.802,296.941 329.468,294.607 328.5,292.5 Z"/></g>
<g><path style="opacity:1" fill="#c38a5e" d="M 182.5,292.5 C 181.532,294.607 181.198,296.941 181.5,299.5C 180.2,296.976 180.2,294.309 181.5,291.5C 182.107,291.624 182.44,291.957 182.5,292.5 Z"/></g>
<g><path style="opacity:1" fill="#e11d28" d="M 222.5,342.5 C 222.5,344.5 222.5,346.5 222.5,348.5C 216.529,344.51 210.529,340.51 204.5,336.5C 201.948,331.842 200.615,326.842 200.5,321.5C 211.784,324.452 219.117,331.452 222.5,342.5 Z"/></g>
<g><path style="opacity:1" fill="#e11c28" d="M 306.5,336.5 C 300.471,340.51 294.471,344.51 288.5,348.5C 288.5,346.5 288.5,344.5 288.5,342.5C 291.883,331.452 299.216,324.452 310.5,321.5C 310.385,326.842 309.052,331.842 306.5,336.5 Z"/></g>
<g><path style="opacity:1" fill="#fece6b" d="M 272.5,348.5 C 274.265,351.709 276.265,354.709 278.5,357.5C 279.263,358.268 280.263,358.768 281.5,359C 291.18,359.579 300.847,359.412 310.5,358.5C 315.511,358.334 320.511,358.501 325.5,359C 326.517,360.049 326.684,361.216 326,362.5C 318.747,367.21 311.58,372.043 304.5,377C 300.886,380.103 297.886,383.603 295.5,387.5C 295.565,387.062 295.399,386.728 295,386.5C 274.001,410.832 260.168,438.832 253.5,470.5C 246.852,438.872 233.019,410.872 212,386.5C 211.601,386.728 211.435,387.062 211.5,387.5C 209.114,383.603 206.114,380.103 202.5,377C 195.42,372.043 188.253,367.21 181,362.5C 180.316,361.216 180.483,360.049 181.5,359C 187.825,358.5 194.158,358.334 200.5,358.5C 208.656,359.657 216.99,359.823 225.5,359C 227.544,358.502 228.878,357.335 229.5,355.5C 233.557,351.716 236.891,347.383 239.5,342.5C 244.199,338.132 248.865,333.799 253.5,329.5C 255.753,330.253 257.587,331.586 259,333.5C 263.366,338.695 267.866,343.695 272.5,348.5 Z"/></g>
<g><path style="opacity:1" fill="#fff9ed" d="M 306.5,366.5 C 307.239,366.369 307.906,366.536 308.5,367C 303.167,371 297.833,375 292.5,379C 288.95,382.883 285.783,387.049 283,391.5C 284.296,384.495 287.796,378.662 293.5,374C 297.602,370.954 301.935,368.454 306.5,366.5 Z"/></g>
<g><path style="opacity:0.99" fill="#fdbb20" d="M 295.5,387.5 C 291.579,405.263 286.246,422.597 279.5,439.5C 274.183,455.14 268.016,470.474 261,485.5C 256,490.833 251,490.833 246,485.5C 238.475,468.756 231.642,451.756 225.5,434.5C 219.617,419.186 214.951,403.52 211.5,387.5C 211.435,387.062 211.601,386.728 212,386.5C 233.019,410.872 246.852,438.872 253.5,470.5C 260.168,438.832 274.001,410.832 295,386.5C 295.399,386.728 295.565,387.062 295.5,387.5 Z"/></g>
<g><path style="opacity:1" fill="#c07f5a" d="M 234.5,398.5 C 241.454,400.623 245.954,405.29 248,412.5C 248.861,418.585 248.527,424.585 247,430.5C 239.598,421.131 235.431,410.464 234.5,398.5 Z"/></g>
<g><path style="opacity:1" fill="#c07f5a" d="M 269.5,398.5 C 270.5,398.5 271.5,398.5 272.5,398.5C 271.569,410.464 267.402,421.131 260,430.5C 255.458,417.384 258.625,406.717 269.5,398.5 Z"/></g>
</svg>
